<?xml version="1.0" encoding="UTF-8" standalone="no"?><!DOCTYPE svg PUBLIC "-//W3C//DTD SVG 1.1//EN" "http://www.w3.org/Graphics/SVG/1.1/DTD/svg11.dtd"><svg width="100%" height="100%" viewBox="0 0 109 24" version="1.1" xmlns="http://www.w3.org/2000/svg" xmlns:xlink="http://www.w3.org/1999/xlink" xml:space="preserve" xmlns:serif="http://www.serif.com/" style="fill-rule:evenodd;clip-rule:evenodd;stroke-linejoin:round;stroke-miterlimit:2;"><g><path d="M0.417,21.228l0,-19.841l2.842,0l0,16.999l5.629,0l0,2.842l-8.471,0Z" style="fill:#f00;fill-rule:nonzero;"/><path d="M10.56,6.069c0,-0.799 0.14,-1.505 0.418,-2.118c0.279,-0.613 0.651,-1.124 1.115,-1.533c0.446,-0.39 0.952,-0.687 1.519,-0.892c0.566,-0.204 1.138,-0.306 1.714,-0.306c0.576,0 1.147,0.102 1.713,0.306c0.567,0.205 1.083,0.502 1.547,0.892c0.446,0.409 0.808,0.92 1.087,1.533c0.279,0.613 0.418,1.319 0.418,2.118l0,10.478c0,0.836 -0.139,1.551 -0.418,2.145c-0.279,0.595 -0.641,1.087 -1.087,1.477c-0.464,0.409 -0.98,0.716 -1.547,0.92c-0.566,0.204 -1.137,0.307 -1.713,0.307c-0.576,0 -1.148,-0.103 -1.714,-0.307c-0.567,-0.204 -1.073,-0.511 -1.519,-0.92c-0.464,-0.39 -0.836,-0.882 -1.115,-1.477c-0.278,-0.594 -0.418,-1.309 -0.418,-2.145l0,-10.478Zm2.843,10.478c0,0.687 0.19,1.193 0.571,1.518c0.381,0.326 0.831,0.488 1.352,0.488c0.52,0 0.97,-0.162 1.351,-0.488c0.381,-0.325 0.571,-0.831 0.571,-1.518l0,-10.478c0,-0.688 -0.19,-1.194 -0.571,-1.519c-0.381,-0.325 -0.831,-0.488 -1.351,-0.488c-0.521,0 -0.971,0.163 -1.352,0.488c-0.381,0.325 -0.571,0.831 -0.571,1.519l0,10.478Z" style="fill:#f00;fill-rule:nonzero;"/><path d="M31.795,7.1l-2.842,0l0,-0.641c0,-0.65 -0.154,-1.212 -0.46,-1.686c-0.307,-0.474 -0.822,-0.711 -1.547,-0.711c-0.39,0 -0.706,0.074 -0.947,0.223c-0.242,0.149 -0.437,0.335 -0.585,0.557c-0.149,0.242 -0.251,0.516 -0.307,0.823c-0.056,0.306 -0.084,0.627 -0.084,0.961c0,0.39 0.014,0.715 0.042,0.975c0.028,0.26 0.098,0.493 0.209,0.697c0.112,0.204 0.274,0.381 0.488,0.529c0.214,0.149 0.506,0.298 0.878,0.446l2.173,0.864c0.632,0.242 1.143,0.525 1.533,0.85c0.39,0.325 0.697,0.702 0.92,1.129c0.204,0.446 0.343,0.952 0.418,1.519c0.074,0.566 0.111,1.212 0.111,1.936c0,0.836 -0.083,1.612 -0.251,2.327c-0.167,0.716 -0.436,1.324 -0.808,1.826c-0.39,0.52 -0.901,0.928 -1.532,1.226c-0.632,0.297 -1.403,0.446 -2.313,0.446c-0.688,0 -1.329,-0.121 -1.923,-0.363c-0.595,-0.241 -1.106,-0.576 -1.533,-1.003c-0.427,-0.427 -0.766,-0.924 -1.017,-1.491c-0.251,-0.566 -0.376,-1.184 -0.376,-1.853l0,-1.059l2.842,0l0,0.892c0,0.52 0.153,0.989 0.46,1.407c0.306,0.418 0.822,0.627 1.547,0.627c0.483,0 0.859,-0.07 1.128,-0.209c0.27,-0.139 0.479,-0.339 0.627,-0.599c0.149,-0.26 0.237,-0.571 0.265,-0.934c0.028,-0.362 0.042,-0.766 0.042,-1.212c0,-0.52 -0.019,-0.947 -0.056,-1.282c-0.037,-0.334 -0.111,-0.603 -0.223,-0.808c-0.13,-0.204 -0.302,-0.371 -0.515,-0.501c-0.214,-0.13 -0.497,-0.27 -0.85,-0.418l-2.035,-0.836c-1.226,-0.502 -2.048,-1.166 -2.466,-1.993c-0.418,-0.827 -0.627,-1.862 -0.627,-3.107c0,-0.743 0.102,-1.449 0.307,-2.118c0.204,-0.669 0.51,-1.245 0.919,-1.728c0.39,-0.483 0.887,-0.868 1.491,-1.156c0.604,-0.288 1.324,-0.432 2.16,-0.432c0.706,0 1.351,0.13 1.937,0.39c0.585,0.26 1.091,0.604 1.518,1.031c0.855,0.892 1.282,1.913 1.282,3.065l0,1.394Z" style="fill:#f00;fill-rule:nonzero;"/><path d="M44.837,14.289l-1.393,-7.189l-0.056,0l-1.393,7.189l2.842,0Zm-7.022,6.939l4.43,-19.841l2.369,0l4.431,19.841l-2.842,0l-0.836,-4.263l-3.874,0l-0.836,4.263l-2.842,0Z" style="fill:#f00;fill-rule:nonzero;"/><path d="M50.438,21.228l0,-19.841l2.843,0l0,16.999l5.629,0l0,2.842l-8.472,0Z" style="fill:#f00;fill-rule:nonzero;"/><path d="M66.49,14.289l-1.393,-7.189l-0.056,0l-1.394,7.189l2.843,0Zm-7.023,6.939l4.431,-19.841l2.369,0l4.431,19.841l-2.843,0l-0.836,-4.263l-3.873,0l-0.836,4.263l-2.843,0Z" style="fill:#f00;fill-rule:nonzero;"/><path d="M72.091,21.228l0,-19.841l2.731,0l3.651,10.506l0.056,0l3.622,-10.506l2.759,0l0,19.841l-2.842,0l0,-12.066l-0.056,0l-2.815,8.527l-1.421,0l-2.787,-8.527l-0.055,0l0,12.066l-2.843,0Z" style="fill:#f00;fill-rule:nonzero;"/><path d="M87.418,6.069c0,-0.799 0.14,-1.505 0.418,-2.118c0.279,-0.613 0.651,-1.124 1.115,-1.533c0.446,-0.39 0.952,-0.687 1.519,-0.892c0.566,-0.204 1.138,-0.306 1.714,-0.306c0.575,0 1.147,0.102 1.713,0.306c0.567,0.205 1.083,0.502 1.547,0.892c0.446,0.409 0.808,0.92 1.087,1.533c0.279,0.613 0.418,1.319 0.418,2.118l0,10.478c0,0.836 -0.139,1.551 -0.418,2.145c-0.279,0.595 -0.641,1.087 -1.087,1.477c-0.464,0.409 -0.98,0.716 -1.547,0.92c-0.566,0.204 -1.138,0.307 -1.713,0.307c-0.576,0 -1.148,-0.103 -1.714,-0.307c-0.567,-0.204 -1.073,-0.511 -1.519,-0.92c-0.464,-0.39 -0.836,-0.882 -1.115,-1.477c-0.278,-0.594 -0.418,-1.309 -0.418,-2.145l0,-10.478Zm2.843,10.478c0,0.687 0.19,1.193 0.571,1.518c0.381,0.326 0.831,0.488 1.352,0.488c0.52,0 0.97,-0.162 1.351,-0.488c0.381,-0.325 0.571,-0.831 0.571,-1.518l0,-10.478c0,-0.688 -0.19,-1.194 -0.571,-1.519c-0.381,-0.325 -0.831,-0.488 -1.351,-0.488c-0.521,0 -0.971,0.163 -1.352,0.488c-0.381,0.325 -0.571,0.831 -0.571,1.519l0,10.478Z" style="fill:#f00;fill-rule:nonzero;"/><path d="M108.653,7.1l-2.842,0l0,-0.641c0,-0.65 -0.154,-1.212 -0.46,-1.686c-0.307,-0.474 -0.822,-0.711 -1.547,-0.711c-0.39,0 -0.706,0.074 -0.947,0.223c-0.242,0.149 -0.437,0.335 -0.585,0.557c-0.149,0.242 -0.251,0.516 -0.307,0.823c-0.056,0.306 -0.084,0.627 -0.084,0.961c0,0.39 0.014,0.715 0.042,0.975c0.028,0.26 0.098,0.493 0.209,0.697c0.112,0.204 0.274,0.381 0.488,0.529c0.214,0.149 0.506,0.298 0.878,0.446l2.173,0.864c0.632,0.242 1.143,0.525 1.533,0.85c0.39,0.325 0.697,0.702 0.92,1.129c0.204,0.446 0.343,0.952 0.418,1.519c0.074,0.566 0.111,1.212 0.111,1.936c0,0.836 -0.083,1.612 -0.251,2.327c-0.167,0.716 -0.436,1.324 -0.808,1.826c-0.39,0.52 -0.901,0.928 -1.533,1.226c-0.631,0.297 -1.402,0.446 -2.313,0.446c-0.687,0 -1.328,-0.121 -1.922,-0.363c-0.595,-0.241 -1.106,-0.576 -1.533,-1.003c-0.427,-0.427 -0.766,-0.924 -1.017,-1.491c-0.251,-0.566 -0.376,-1.184 -0.376,-1.853l0,-1.059l2.842,0l0,0.892c0,0.52 0.153,0.989 0.46,1.407c0.306,0.418 0.822,0.627 1.546,0.627c0.484,0 0.86,-0.07 1.129,-0.209c0.269,-0.139 0.479,-0.339 0.627,-0.599c0.149,-0.26 0.237,-0.571 0.265,-0.934c0.028,-0.362 0.042,-0.766 0.042,-1.212c0,-0.52 -0.019,-0.947 -0.056,-1.282c-0.037,-0.334 -0.112,-0.603 -0.223,-0.808c-0.13,-0.204 -0.302,-0.371 -0.516,-0.501c-0.213,-0.13 -0.497,-0.27 -0.85,-0.418l-2.034,-0.836c-1.226,-0.502 -2.048,-1.166 -2.466,-1.993c-0.418,-0.827 -0.627,-1.862 -0.627,-3.107c0,-0.743 0.102,-1.449 0.306,-2.118c0.205,-0.669 0.511,-1.245 0.92,-1.728c0.39,-0.483 0.887,-0.868 1.491,-1.156c0.604,-0.288 1.324,-0.432 2.16,-0.432c0.706,0 1.351,0.13 1.936,0.39c0.586,0.26 1.092,0.604 1.519,1.031c0.855,0.892 1.282,1.913 1.282,3.065l0,1.394Z" style="fill:#f00;fill-rule:nonzero;"/></g></svg>